<mxfile host="app.diagrams.net" agent="Mozilla/5.0 (X11; Linux x86_64) AppleWebKit/537.36 (KHTML, like Gecko) Chrome/126.0.0.0 Safari/537.36" version="24.8.0">
  <diagram name="Page-1" id="2YBvvXClWsGukQMizWep">
    <mxGraphModel dx="684" dy="417" grid="1" gridSize="10" guides="1" tooltips="1" connect="1" arrows="1" fold="1" page="1" pageScale="1" pageWidth="850" pageHeight="1100" math="0" shadow="0">
      <root>
        <mxCell id="0" />
        <mxCell id="1" parent="0" />
        <mxCell id="pxlaizzrYFzVTjegJ_f6-6" value="" style="shape=umlLifeline;perimeter=lifelinePerimeter;whiteSpace=wrap;html=1;container=1;dropTarget=0;collapsible=0;recursiveResize=0;outlineConnect=0;portConstraint=eastwest;newEdgeStyle={&quot;curved&quot;:0,&quot;rounded&quot;:0};participant=umlActor;strokeColor=default;align=center;verticalAlign=middle;fontFamily=Helvetica;fontSize=12;fontColor=default;fillColor=default;" vertex="1" parent="1">
          <mxGeometry x="150" y="100" width="20" height="400" as="geometry" />
        </mxCell>
        <mxCell id="pxlaizzrYFzVTjegJ_f6-7" value="" style="html=1;points=[[0,0,0,0,5],[0,1,0,0,-5],[1,0,0,0,5],[1,1,0,0,-5]];perimeter=orthogonalPerimeter;outlineConnect=0;targetShapes=umlLifeline;portConstraint=eastwest;newEdgeStyle={&quot;curved&quot;:0,&quot;rounded&quot;:0};strokeColor=default;align=center;verticalAlign=middle;fontFamily=Helvetica;fontSize=12;fontColor=default;fillColor=default;" vertex="1" parent="pxlaizzrYFzVTjegJ_f6-6">
          <mxGeometry x="5" y="70" width="10" height="280" as="geometry" />
        </mxCell>
        <mxCell id="pxlaizzrYFzVTjegJ_f6-8" value="OrderService" style="shape=umlLifeline;perimeter=lifelinePerimeter;whiteSpace=wrap;html=1;container=1;dropTarget=0;collapsible=0;recursiveResize=0;outlineConnect=0;portConstraint=eastwest;newEdgeStyle={&quot;curved&quot;:0,&quot;rounded&quot;:0};strokeColor=default;align=center;verticalAlign=middle;fontFamily=Helvetica;fontSize=12;fontColor=default;fillColor=default;" vertex="1" parent="1">
          <mxGeometry x="250" y="100" width="100" height="400" as="geometry" />
        </mxCell>
        <mxCell id="pxlaizzrYFzVTjegJ_f6-9" value="" style="html=1;points=[[0,0,0,0,5],[0,1,0,0,-5],[1,0,0,0,5],[1,1,0,0,-5]];perimeter=orthogonalPerimeter;outlineConnect=0;targetShapes=umlLifeline;portConstraint=eastwest;newEdgeStyle={&quot;curved&quot;:0,&quot;rounded&quot;:0};strokeColor=default;align=center;verticalAlign=middle;fontFamily=Helvetica;fontSize=12;fontColor=default;fillColor=default;" vertex="1" parent="pxlaizzrYFzVTjegJ_f6-8">
          <mxGeometry x="45" y="70" width="10" height="280" as="geometry" />
        </mxCell>
        <mxCell id="pxlaizzrYFzVTjegJ_f6-10" style="edgeStyle=orthogonalEdgeStyle;rounded=0;orthogonalLoop=1;jettySize=auto;html=1;curved=0;exitX=1;exitY=0;exitDx=0;exitDy=5;exitPerimeter=0;entryX=0;entryY=0;entryDx=0;entryDy=5;entryPerimeter=0;fontFamily=Helvetica;fontSize=12;fontColor=default;" edge="1" parent="1" source="pxlaizzrYFzVTjegJ_f6-7" target="pxlaizzrYFzVTjegJ_f6-9">
          <mxGeometry relative="1" as="geometry" />
        </mxCell>
        <mxCell id="pxlaizzrYFzVTjegJ_f6-11" value="&lt;font style=&quot;font-size: 8px;&quot;&gt;Make an order&lt;/font&gt;" style="edgeLabel;html=1;align=center;verticalAlign=middle;resizable=0;points=[];strokeColor=default;fontFamily=Helvetica;fontSize=12;fontColor=default;fillColor=default;" vertex="1" connectable="0" parent="pxlaizzrYFzVTjegJ_f6-10">
          <mxGeometry x="0.0279" y="6" relative="1" as="geometry">
            <mxPoint x="-2" y="-2" as="offset" />
          </mxGeometry>
        </mxCell>
        <mxCell id="pxlaizzrYFzVTjegJ_f6-12" value="ItemDao" style="shape=umlLifeline;perimeter=lifelinePerimeter;whiteSpace=wrap;html=1;container=1;dropTarget=0;collapsible=0;recursiveResize=0;outlineConnect=0;portConstraint=eastwest;newEdgeStyle={&quot;curved&quot;:0,&quot;rounded&quot;:0};strokeColor=default;align=center;verticalAlign=middle;fontFamily=Helvetica;fontSize=12;fontColor=default;fillColor=default;" vertex="1" parent="1">
          <mxGeometry x="410" y="100" width="100" height="400" as="geometry" />
        </mxCell>
        <mxCell id="pxlaizzrYFzVTjegJ_f6-14" value="" style="html=1;points=[[0,0,0,0,5],[0,1,0,0,-5],[1,0,0,0,5],[1,1,0,0,-5]];perimeter=orthogonalPerimeter;outlineConnect=0;targetShapes=umlLifeline;portConstraint=eastwest;newEdgeStyle={&quot;curved&quot;:0,&quot;rounded&quot;:0};strokeColor=default;align=center;verticalAlign=middle;fontFamily=Helvetica;fontSize=12;fontColor=default;fillColor=default;" vertex="1" parent="pxlaizzrYFzVTjegJ_f6-12">
          <mxGeometry x="45" y="80" width="10" height="290" as="geometry" />
        </mxCell>
        <mxCell id="pxlaizzrYFzVTjegJ_f6-15" style="edgeStyle=orthogonalEdgeStyle;rounded=0;orthogonalLoop=1;jettySize=auto;html=1;curved=0;exitX=1;exitY=0;exitDx=0;exitDy=5;exitPerimeter=0;entryX=0;entryY=0;entryDx=0;entryDy=5;entryPerimeter=0;fontFamily=Helvetica;fontSize=12;fontColor=default;" edge="1" parent="1">
          <mxGeometry relative="1" as="geometry">
            <mxPoint x="305" y="190" as="sourcePoint" />
            <mxPoint x="455" y="190" as="targetPoint" />
          </mxGeometry>
        </mxCell>
        <mxCell id="pxlaizzrYFzVTjegJ_f6-16" value="&lt;font style=&quot;font-size: 8px;&quot;&gt;Acquire lock on order items&lt;/font&gt;" style="text;html=1;align=center;verticalAlign=middle;resizable=0;points=[];autosize=1;strokeColor=none;fillColor=none;fontFamily=Helvetica;fontSize=12;fontColor=default;" vertex="1" parent="1">
          <mxGeometry x="310" y="168" width="120" height="30" as="geometry" />
        </mxCell>
        <mxCell id="pxlaizzrYFzVTjegJ_f6-19" value="&lt;p style=&quot;line-height: 30%;&quot;&gt;&lt;font style=&quot;font-size: 6px;&quot;&gt;wait for lock&lt;/font&gt;&lt;/p&gt;" style="whiteSpace=wrap;html=1;strokeColor=default;align=center;verticalAlign=middle;fontFamily=Helvetica;fontSize=12;fontColor=default;fillColor=default;dashed=1;dashPattern=1 2;horizontal=1;" vertex="1" parent="1">
          <mxGeometry x="467" y="193" width="33" height="15" as="geometry" />
        </mxCell>
        <mxCell id="pxlaizzrYFzVTjegJ_f6-20" value="" style="edgeStyle=orthogonalEdgeStyle;rounded=0;orthogonalLoop=1;jettySize=auto;html=1;curved=0;fontFamily=Helvetica;fontSize=12;fontColor=default;" edge="1" parent="1">
          <mxGeometry relative="1" as="geometry">
            <mxPoint x="305" y="234" as="sourcePoint" />
            <mxPoint x="455" y="234" as="targetPoint" />
          </mxGeometry>
        </mxCell>
        <mxCell id="pxlaizzrYFzVTjegJ_f6-22" value="&lt;font style=&quot;font-size: 8px;&quot;&gt;Get items amount&lt;/font&gt;" style="edgeLabel;html=1;align=center;verticalAlign=middle;resizable=0;points=[];strokeColor=default;fontFamily=Helvetica;fontSize=12;fontColor=default;fillColor=default;" vertex="1" connectable="0" parent="pxlaizzrYFzVTjegJ_f6-20">
          <mxGeometry x="-0.086" relative="1" as="geometry">
            <mxPoint as="offset" />
          </mxGeometry>
        </mxCell>
        <mxCell id="pxlaizzrYFzVTjegJ_f6-25" value="&lt;font style=&quot;font-size: 8px;&quot;&gt;Return lock&lt;/font&gt;" style="html=1;verticalAlign=bottom;endArrow=open;dashed=1;endSize=8;curved=0;rounded=0;fontFamily=Helvetica;fontSize=12;fontColor=default;" edge="1" parent="1" source="pxlaizzrYFzVTjegJ_f6-14">
          <mxGeometry relative="1" as="geometry">
            <mxPoint x="400" y="209" as="sourcePoint" />
            <mxPoint x="305" y="209" as="targetPoint" />
          </mxGeometry>
        </mxCell>
        <mxCell id="pxlaizzrYFzVTjegJ_f6-26" value="&lt;font style=&quot;font-size: 8px;&quot;&gt;Return&lt;/font&gt;" style="html=1;verticalAlign=bottom;endArrow=open;dashed=1;endSize=8;curved=0;rounded=0;fontFamily=Helvetica;fontSize=12;fontColor=default;" edge="1" parent="1">
          <mxGeometry relative="1" as="geometry">
            <mxPoint x="455" y="255.86" as="sourcePoint" />
            <mxPoint x="305" y="255.86" as="targetPoint" />
          </mxGeometry>
        </mxCell>
        <mxCell id="pxlaizzrYFzVTjegJ_f6-28" value="OrderDao" style="shape=umlLifeline;perimeter=lifelinePerimeter;whiteSpace=wrap;html=1;container=1;dropTarget=0;collapsible=0;recursiveResize=0;outlineConnect=0;portConstraint=eastwest;newEdgeStyle={&quot;curved&quot;:0,&quot;rounded&quot;:0};strokeColor=default;align=center;verticalAlign=middle;fontFamily=Helvetica;fontSize=12;fontColor=default;fillColor=default;" vertex="1" parent="1">
          <mxGeometry x="570" y="100" width="100" height="400" as="geometry" />
        </mxCell>
        <mxCell id="pxlaizzrYFzVTjegJ_f6-29" value="" style="html=1;points=[[0,0,0,0,5],[0,1,0,0,-5],[1,0,0,0,5],[1,1,0,0,-5]];perimeter=orthogonalPerimeter;outlineConnect=0;targetShapes=umlLifeline;portConstraint=eastwest;newEdgeStyle={&quot;curved&quot;:0,&quot;rounded&quot;:0};strokeColor=default;align=center;verticalAlign=middle;fontFamily=Helvetica;fontSize=12;fontColor=default;fillColor=default;" vertex="1" parent="pxlaizzrYFzVTjegJ_f6-28">
          <mxGeometry x="45" y="240" width="10" height="70" as="geometry" />
        </mxCell>
        <mxCell id="pxlaizzrYFzVTjegJ_f6-30" value="&lt;span style=&quot;font-size: 8px;&quot;&gt;Verify amount of&lt;/span&gt;&lt;div style=&quot;line-height: 40%;&quot;&gt;&lt;span style=&quot;font-size: 8px;&quot;&gt;available items is &amp;gt;=1&lt;/span&gt;&lt;/div&gt;" style="html=1;verticalAlign=bottom;endArrow=block;curved=0;rounded=0;fontFamily=Helvetica;fontSize=12;fontColor=default;" edge="1" parent="1">
          <mxGeometry width="80" relative="1" as="geometry">
            <mxPoint x="305" y="280" as="sourcePoint" />
            <mxPoint x="305" y="300" as="targetPoint" />
            <Array as="points">
              <mxPoint x="340" y="280" />
              <mxPoint x="360" y="280" />
              <mxPoint x="360" y="300" />
            </Array>
          </mxGeometry>
        </mxCell>
        <mxCell id="pxlaizzrYFzVTjegJ_f6-31" value="&lt;span style=&quot;font-size: 8px;&quot;&gt;Decrease amount by 1&lt;/span&gt;" style="html=1;verticalAlign=bottom;endArrow=block;curved=0;rounded=0;fontFamily=Helvetica;fontSize=12;fontColor=default;" edge="1" parent="1">
          <mxGeometry width="80" relative="1" as="geometry">
            <mxPoint x="305" y="352" as="sourcePoint" />
            <mxPoint x="454.5" y="352" as="targetPoint" />
          </mxGeometry>
        </mxCell>
        <mxCell id="pxlaizzrYFzVTjegJ_f6-36" value="&lt;font style=&quot;font-size: 8px;&quot;&gt;Create order record&lt;/font&gt;" style="html=1;verticalAlign=bottom;endArrow=block;curved=0;rounded=0;fontFamily=Helvetica;fontSize=12;fontColor=default;" edge="1" parent="1">
          <mxGeometry width="80" relative="1" as="geometry">
            <mxPoint x="305" y="371" as="sourcePoint" />
            <mxPoint x="615" y="371" as="targetPoint" />
          </mxGeometry>
        </mxCell>
        <mxCell id="pxlaizzrYFzVTjegJ_f6-37" value="&lt;font style=&quot;font-size: 8px;&quot;&gt;Return&lt;/font&gt;" style="html=1;verticalAlign=bottom;endArrow=open;dashed=1;endSize=8;curved=0;rounded=0;fontFamily=Helvetica;fontSize=12;fontColor=default;" edge="1" parent="1">
          <mxGeometry relative="1" as="geometry">
            <mxPoint x="615" y="389" as="sourcePoint" />
            <mxPoint x="305" y="389.0000000000001" as="targetPoint" />
          </mxGeometry>
        </mxCell>
        <mxCell id="pxlaizzrYFzVTjegJ_f6-38" value="&lt;font style=&quot;font-size: 8px;&quot;&gt;Release lock&lt;/font&gt;" style="html=1;verticalAlign=bottom;endArrow=block;curved=0;rounded=0;fontFamily=Helvetica;fontSize=12;fontColor=default;" edge="1" parent="1">
          <mxGeometry width="80" relative="1" as="geometry">
            <mxPoint x="305" y="421" as="sourcePoint" />
            <mxPoint x="455" y="421" as="targetPoint" />
          </mxGeometry>
        </mxCell>
        <mxCell id="pxlaizzrYFzVTjegJ_f6-39" value="&lt;font style=&quot;font-size: 8px;&quot;&gt;Return order information&lt;/font&gt;" style="html=1;verticalAlign=bottom;endArrow=open;dashed=1;endSize=8;curved=0;rounded=0;fontFamily=Helvetica;fontSize=12;fontColor=default;" edge="1" parent="1" target="pxlaizzrYFzVTjegJ_f6-7">
          <mxGeometry relative="1" as="geometry">
            <mxPoint x="295" y="440" as="sourcePoint" />
            <mxPoint x="170" y="440" as="targetPoint" />
          </mxGeometry>
        </mxCell>
      </root>
    </mxGraphModel>
  </diagram>
</mxfile>
